<mxfile host="app.diagrams.net" agent="Mozilla/5.0 (Macintosh; Intel Mac OS X 10_15_7) AppleWebKit/537.36 (KHTML, like Gecko) Chrome/125.0.0.0 Safari/537.36" version="24.7.7">
  <diagram name="第 1 页" id="VgUTL3pj52MgDbvS858K">
    <mxGraphModel dx="1242" dy="786" grid="1" gridSize="10" guides="1" tooltips="1" connect="1" arrows="1" fold="1" page="1" pageScale="1" pageWidth="827" pageHeight="1169" math="0" shadow="0">
      <root>
        <mxCell id="0" />
        <mxCell id="1" parent="0" />
        <mxCell id="U8ZCu9tGDQY5DcTkHCaa-3" value="" style="edgeStyle=orthogonalEdgeStyle;rounded=0;orthogonalLoop=1;jettySize=auto;html=1;" edge="1" parent="1" source="U8ZCu9tGDQY5DcTkHCaa-1" target="U8ZCu9tGDQY5DcTkHCaa-2">
          <mxGeometry relative="1" as="geometry" />
        </mxCell>
        <mxCell id="U8ZCu9tGDQY5DcTkHCaa-4" value="" style="edgeStyle=orthogonalEdgeStyle;rounded=0;orthogonalLoop=1;jettySize=auto;html=1;" edge="1" parent="1" source="U8ZCu9tGDQY5DcTkHCaa-1" target="U8ZCu9tGDQY5DcTkHCaa-2">
          <mxGeometry relative="1" as="geometry" />
        </mxCell>
        <mxCell id="U8ZCu9tGDQY5DcTkHCaa-6" value="" style="edgeStyle=orthogonalEdgeStyle;rounded=0;orthogonalLoop=1;jettySize=auto;html=1;" edge="1" parent="1" source="U8ZCu9tGDQY5DcTkHCaa-1" target="U8ZCu9tGDQY5DcTkHCaa-5">
          <mxGeometry relative="1" as="geometry" />
        </mxCell>
        <mxCell id="U8ZCu9tGDQY5DcTkHCaa-8" value="" style="edgeStyle=orthogonalEdgeStyle;rounded=0;orthogonalLoop=1;jettySize=auto;html=1;" edge="1" parent="1" source="U8ZCu9tGDQY5DcTkHCaa-1" target="U8ZCu9tGDQY5DcTkHCaa-7">
          <mxGeometry relative="1" as="geometry" />
        </mxCell>
        <mxCell id="U8ZCu9tGDQY5DcTkHCaa-1" value="&lt;font style=&quot;font-size: 20px;&quot;&gt;&amp;gt;=&lt;/font&gt;" style="ellipse;whiteSpace=wrap;html=1;" vertex="1" parent="1">
          <mxGeometry x="240" y="210" width="120" height="80" as="geometry" />
        </mxCell>
        <mxCell id="U8ZCu9tGDQY5DcTkHCaa-10" value="" style="edgeStyle=orthogonalEdgeStyle;rounded=0;orthogonalLoop=1;jettySize=auto;html=1;" edge="1" parent="1" source="U8ZCu9tGDQY5DcTkHCaa-2" target="U8ZCu9tGDQY5DcTkHCaa-9">
          <mxGeometry relative="1" as="geometry" />
        </mxCell>
        <mxCell id="U8ZCu9tGDQY5DcTkHCaa-2" value="&lt;font style=&quot;font-size: 15px;&quot;&gt;mul&lt;/font&gt;&lt;div&gt;&lt;font style=&quot;font-size: 15px;&quot;&gt;reducesum&lt;/font&gt;&lt;/div&gt;" style="ellipse;whiteSpace=wrap;html=1;" vertex="1" parent="1">
          <mxGeometry x="180" y="350" width="120" height="80" as="geometry" />
        </mxCell>
        <mxCell id="U8ZCu9tGDQY5DcTkHCaa-12" value="" style="edgeStyle=orthogonalEdgeStyle;rounded=0;orthogonalLoop=1;jettySize=auto;html=1;" edge="1" parent="1" source="U8ZCu9tGDQY5DcTkHCaa-5" target="U8ZCu9tGDQY5DcTkHCaa-11">
          <mxGeometry relative="1" as="geometry" />
        </mxCell>
        <mxCell id="U8ZCu9tGDQY5DcTkHCaa-5" value="&lt;meta charset=&quot;utf-8&quot;&gt;&lt;font style=&quot;forced-color-adjust: none; color: rgb(0, 0, 0); font-family: Helvetica; font-style: normal; font-variant-ligatures: normal; font-variant-caps: normal; font-weight: 400; letter-spacing: normal; orphans: 2; text-align: center; text-indent: 0px; text-transform: none; widows: 2; word-spacing: 0px; -webkit-text-stroke-width: 0px; white-space: normal; background-color: rgb(251, 251, 251); text-decoration-thickness: initial; text-decoration-style: initial; text-decoration-color: initial; font-size: 15px;&quot;&gt;mul&lt;/font&gt;&lt;div style=&quot;forced-color-adjust: none; color: rgb(0, 0, 0); font-family: Helvetica; font-size: 12px; font-style: normal; font-variant-ligatures: normal; font-variant-caps: normal; font-weight: 400; letter-spacing: normal; orphans: 2; text-align: center; text-indent: 0px; text-transform: none; widows: 2; word-spacing: 0px; -webkit-text-stroke-width: 0px; white-space: normal; background-color: rgb(251, 251, 251); text-decoration-thickness: initial; text-decoration-style: initial; text-decoration-color: initial;&quot;&gt;&lt;font style=&quot;forced-color-adjust: none; font-size: 15px;&quot;&gt;reducesum&lt;/font&gt;&lt;/div&gt;" style="ellipse;whiteSpace=wrap;html=1;" vertex="1" parent="1">
          <mxGeometry x="310" y="350" width="120" height="80" as="geometry" />
        </mxCell>
        <mxCell id="U8ZCu9tGDQY5DcTkHCaa-7" value="&lt;div style=&quot;forced-color-adjust: none; color: rgb(0, 0, 0); font-family: Helvetica; font-size: 12px; font-style: normal; font-variant-ligatures: normal; font-variant-caps: normal; font-weight: 400; letter-spacing: normal; orphans: 2; text-align: center; text-indent: 0px; text-transform: none; widows: 2; word-spacing: 0px; -webkit-text-stroke-width: 0px; white-space: normal; background-color: rgb(251, 251, 251); text-decoration-thickness: initial; text-decoration-style: initial; text-decoration-color: initial;&quot;&gt;&lt;font style=&quot;forced-color-adjust: none; font-size: 15px;&quot;&gt;reducesum&lt;/font&gt;&lt;/div&gt;" style="ellipse;whiteSpace=wrap;html=1;" vertex="1" parent="1">
          <mxGeometry x="490" y="210" width="120" height="80" as="geometry" />
        </mxCell>
        <mxCell id="U8ZCu9tGDQY5DcTkHCaa-25" value="" style="edgeStyle=orthogonalEdgeStyle;rounded=0;orthogonalLoop=1;jettySize=auto;html=1;" edge="1" parent="1" source="U8ZCu9tGDQY5DcTkHCaa-9" target="U8ZCu9tGDQY5DcTkHCaa-23">
          <mxGeometry relative="1" as="geometry" />
        </mxCell>
        <mxCell id="U8ZCu9tGDQY5DcTkHCaa-9" value="&lt;span style=&quot;font-size: 15px;&quot;&gt;divnonan&lt;/span&gt;" style="ellipse;whiteSpace=wrap;html=1;" vertex="1" parent="1">
          <mxGeometry x="180" y="480" width="120" height="80" as="geometry" />
        </mxCell>
        <mxCell id="U8ZCu9tGDQY5DcTkHCaa-26" value="" style="edgeStyle=orthogonalEdgeStyle;rounded=0;orthogonalLoop=1;jettySize=auto;html=1;" edge="1" parent="1" source="U8ZCu9tGDQY5DcTkHCaa-11" target="U8ZCu9tGDQY5DcTkHCaa-24">
          <mxGeometry relative="1" as="geometry" />
        </mxCell>
        <mxCell id="U8ZCu9tGDQY5DcTkHCaa-11" value="&lt;meta charset=&quot;utf-8&quot;&gt;&lt;span style=&quot;color: rgb(0, 0, 0); font-family: Helvetica; font-size: 15px; font-style: normal; font-variant-ligatures: normal; font-variant-caps: normal; font-weight: 400; letter-spacing: normal; orphans: 2; text-align: center; text-indent: 0px; text-transform: none; widows: 2; word-spacing: 0px; -webkit-text-stroke-width: 0px; white-space: normal; background-color: rgb(251, 251, 251); text-decoration-thickness: initial; text-decoration-style: initial; text-decoration-color: initial; display: inline !important; float: none;&quot;&gt;divnonan&lt;/span&gt;" style="ellipse;whiteSpace=wrap;html=1;" vertex="1" parent="1">
          <mxGeometry x="310" y="480" width="120" height="80" as="geometry" />
        </mxCell>
        <mxCell id="U8ZCu9tGDQY5DcTkHCaa-13" value="" style="endArrow=classic;html=1;rounded=0;exitX=0.417;exitY=0.975;exitDx=0;exitDy=0;exitPerimeter=0;entryX=0.558;entryY=-0.012;entryDx=0;entryDy=0;entryPerimeter=0;" edge="1" parent="1" source="U8ZCu9tGDQY5DcTkHCaa-7" target="U8ZCu9tGDQY5DcTkHCaa-9">
          <mxGeometry width="50" height="50" relative="1" as="geometry">
            <mxPoint x="390" y="430" as="sourcePoint" />
            <mxPoint x="440" y="380" as="targetPoint" />
          </mxGeometry>
        </mxCell>
        <mxCell id="U8ZCu9tGDQY5DcTkHCaa-14" value="" style="endArrow=classic;html=1;rounded=0;" edge="1" parent="1">
          <mxGeometry width="50" height="50" relative="1" as="geometry">
            <mxPoint x="540" y="290" as="sourcePoint" />
            <mxPoint x="370" y="480" as="targetPoint" />
          </mxGeometry>
        </mxCell>
        <mxCell id="U8ZCu9tGDQY5DcTkHCaa-15" value="&lt;font style=&quot;font-size: 18px;&quot;&gt;x2&lt;/font&gt;" style="text;html=1;align=center;verticalAlign=middle;whiteSpace=wrap;rounded=0;" vertex="1" parent="1">
          <mxGeometry x="160" y="310" width="60" height="30" as="geometry" />
        </mxCell>
        <mxCell id="U8ZCu9tGDQY5DcTkHCaa-16" value="&lt;font style=&quot;font-size: 18px;&quot;&gt;x3&lt;/font&gt;" style="text;html=1;align=center;verticalAlign=middle;whiteSpace=wrap;rounded=0;" vertex="1" parent="1">
          <mxGeometry x="310" y="310" width="60" height="30" as="geometry" />
        </mxCell>
        <mxCell id="U8ZCu9tGDQY5DcTkHCaa-17" value="&lt;font style=&quot;font-size: 18px;&quot;&gt;x1&lt;/font&gt;" style="text;html=1;align=center;verticalAlign=middle;whiteSpace=wrap;rounded=0;" vertex="1" parent="1">
          <mxGeometry x="270" y="160" width="60" height="30" as="geometry" />
        </mxCell>
        <mxCell id="U8ZCu9tGDQY5DcTkHCaa-18" value="" style="endArrow=classic;html=1;rounded=0;exitX=0.5;exitY=1;exitDx=0;exitDy=0;entryX=0.092;entryY=0.188;entryDx=0;entryDy=0;entryPerimeter=0;" edge="1" parent="1" source="U8ZCu9tGDQY5DcTkHCaa-15" target="U8ZCu9tGDQY5DcTkHCaa-2">
          <mxGeometry width="50" height="50" relative="1" as="geometry">
            <mxPoint x="390" y="420" as="sourcePoint" />
            <mxPoint x="440" y="370" as="targetPoint" />
          </mxGeometry>
        </mxCell>
        <mxCell id="U8ZCu9tGDQY5DcTkHCaa-20" value="" style="endArrow=classic;html=1;rounded=0;exitX=0.5;exitY=1;exitDx=0;exitDy=0;entryX=0.092;entryY=0.188;entryDx=0;entryDy=0;entryPerimeter=0;" edge="1" parent="1">
          <mxGeometry width="50" height="50" relative="1" as="geometry">
            <mxPoint x="340" y="332.5" as="sourcePoint" />
            <mxPoint x="341" y="357.5" as="targetPoint" />
          </mxGeometry>
        </mxCell>
        <mxCell id="U8ZCu9tGDQY5DcTkHCaa-21" value="" style="endArrow=classic;html=1;rounded=0;exitX=0.5;exitY=1;exitDx=0;exitDy=0;entryX=0.092;entryY=0.188;entryDx=0;entryDy=0;entryPerimeter=0;" edge="1" parent="1">
          <mxGeometry width="50" height="50" relative="1" as="geometry">
            <mxPoint x="299" y="185" as="sourcePoint" />
            <mxPoint x="300" y="210" as="targetPoint" />
          </mxGeometry>
        </mxCell>
        <mxCell id="U8ZCu9tGDQY5DcTkHCaa-23" value="&lt;font style=&quot;font-size: 18px;&quot;&gt;out1&lt;/font&gt;" style="text;html=1;align=center;verticalAlign=middle;whiteSpace=wrap;rounded=0;" vertex="1" parent="1">
          <mxGeometry x="210" y="585" width="60" height="30" as="geometry" />
        </mxCell>
        <mxCell id="U8ZCu9tGDQY5DcTkHCaa-24" value="&lt;font style=&quot;font-size: 18px;&quot;&gt;out2&lt;/font&gt;" style="text;html=1;align=center;verticalAlign=middle;whiteSpace=wrap;rounded=0;" vertex="1" parent="1">
          <mxGeometry x="340" y="585" width="60" height="30" as="geometry" />
        </mxCell>
      </root>
    </mxGraphModel>
  </diagram>
</mxfile>
